<svg xmlns="http://www.w3.org/2000/svg" viewBox="0 0 64 64" width="512" height="512">
  <defs>
    <linearGradient id="p" x1="0" y1="0" x2="0" y2="1">
      <stop offset="0" stop-color="#c4b5fd"/>
      <stop offset="0.55" stop-color="#9D5CFF"/>
      <stop offset="1" stop-color="#7c3aed"/>
    </linearGradient>
  </defs>
  <rect width="64" height="64" rx="12" fill="#0a0a18"/>
  <rect x="29.5" y="32" width="5" height="22" rx="1.2" fill="url(#p)"/>
  <g transform="translate(32 32) rotate(-25)">
    <rect x="-2.5" y="-8" width="5" height="14" rx="1.2" fill="url(#p)"/>
    <rect x="-8" y="-22" width="16" height="16" rx="8" fill="url(#p)"/>
    <rect x="-4.5" y="-19" width="9" height="1.1" rx="0.55" fill="#0a0a18" opacity="0.55"/>
    <rect x="-4.5" y="-16.5" width="9" height="1.1" rx="0.55" fill="#0a0a18" opacity="0.55"/>
    <rect x="-4.5" y="-14" width="9" height="1.1" rx="0.55" fill="#0a0a18" opacity="0.55"/>
  </g>
  <g transform="translate(32 32) rotate(25)">
    <rect x="-2.5" y="-8" width="5" height="14" rx="1.2" fill="url(#p)"/>
    <rect x="-8" y="-22" width="16" height="16" rx="8" fill="url(#p)"/>
    <rect x="-4.5" y="-19" width="9" height="1.1" rx="0.55" fill="#0a0a18" opacity="0.55"/>
    <rect x="-4.5" y="-16.5" width="9" height="1.1" rx="0.55" fill="#0a0a18" opacity="0.55"/>
    <rect x="-4.5" y="-14" width="9" height="1.1" rx="0.55" fill="#0a0a18" opacity="0.55"/>
  </g>
</svg>
